<svg width="1600" height="496" viewBox="0 0 1600 496" fill="none" xmlns="http://www.w3.org/2000/svg">
<path d="M48.9395 62.5393V76.4457H56.754C107.035 76.4457 156.211 92.3948 196.547 121.7C206.493 128.928 221.806 142.049 221.806 143.306C221.806 143.699 219.754 146.685 217.149 149.827C214.623 153.048 209.729 159.648 206.414 164.598C203.019 169.469 199.941 173.79 199.546 174.262C199.152 174.654 197.099 173.24 194.337 170.647C167.578 144.956 132.452 126.571 95.9054 119.265C86.4333 117.379 69.3835 115.729 58.6484 115.729H48.9395V129.478V143.228H58.4116C103.404 143.228 146.739 161.691 179.339 194.846L185.417 200.974L181.786 209.224C179.813 213.781 176.182 223.523 173.735 230.987L169.157 244.422L164.184 237.429C147.765 214.252 124.006 196.967 96.3001 188.168C84.8546 184.554 76.6454 183.218 62.1215 182.668L48.9395 182.118V196.025V210.009H57.859C101.51 210.009 141.135 238.529 155.027 279.934C160.711 296.904 160.632 294.94 160.632 373.586V444.139H174.603H188.574L188.89 365.336C189.127 279.62 188.969 283.234 193.863 261.471C196.073 251.336 203.493 228.08 204.44 228.08C204.835 228.08 207.045 232.087 209.413 236.879C216.833 251.964 222.043 267.442 225.121 283.47C226.779 291.876 226.858 294.469 227.094 368.086L227.41 444.139H241.145H254.879L255.195 370.129C255.432 304.761 255.669 295.097 256.853 288.184C260.247 268.385 267.114 247.8 275.245 233.03C276.823 230.201 278.323 228.237 278.639 228.63C279.902 229.887 284.953 245.679 287.637 256.6C293.952 282.134 294.426 290.776 294.426 373.586V444.139H308.239H321.974L322.289 371.622C322.526 301.304 322.605 298.947 324.184 292.112C325.131 288.184 327.026 281.82 328.367 277.97C338.708 249.214 361.678 226.351 390.726 215.981C401.855 211.974 408.565 210.717 421.747 210.245L434.14 209.774V196.025V182.275L420.563 182.747C411.012 183.061 404.618 183.69 399.172 184.789C365.624 192.018 336.577 211.267 317.474 238.844L313.607 244.5L309.66 232.558C307.45 225.959 303.819 216.295 301.609 210.952L297.504 201.289L301.056 197.124C305.24 192.332 317.553 181.411 325.131 175.99C354.1 154.934 389.384 143.228 423.957 143.228H434.14V129.478V115.729H424.904C414.169 115.729 401.461 116.829 390.726 118.558C373.597 121.465 349.68 129.557 333.972 137.885C318.185 146.135 298.767 160.198 288.505 170.647C286.374 172.847 284.243 174.654 283.769 174.654C283.375 174.576 281.244 171.905 279.033 168.526C276.902 165.226 271.85 158.155 267.825 152.813L260.484 143.149L264.983 138.985C292.373 113.922 324.736 95.7731 360.731 85.4809C379.833 79.9812 396.804 77.467 420.168 76.6814L434.14 76.21V62.5393V48.9473H424.746C399.487 48.9473 369.966 53.4256 346.68 60.8894C309.028 72.8316 274.534 92.5519 247.223 117.772L241.54 122.957L232.62 115.179C207.913 93.6518 183.365 78.7241 153.922 67.1748C124.717 55.7826 97.0105 50.2043 64.1738 49.183L48.9395 48.7115V62.5393ZM248.88 173.712C252.511 178.583 257.484 185.968 259.931 190.053L264.43 197.596L259.142 205.924C253.538 214.645 242.329 236.094 242.329 237.979C242.329 240.258 240.671 238.922 239.408 235.701C236.882 229.18 228.436 213.466 223.464 205.845L218.412 198.146L219.833 195.239C223.227 188.089 240.198 164.126 241.54 164.598C241.934 164.755 245.249 168.84 248.88 173.712Z" fill="#F0F6FC"/>
<path d="M1268.47 137.335V166.876L1264.21 162.477C1246.06 144.013 1212.19 151.32 1199.88 176.304C1194.91 186.439 1193.88 191.232 1193.88 204.903C1193.88 215.038 1194.12 217.473 1195.7 222.58C1202.41 243.95 1216.61 255.578 1236.03 255.578C1243.45 255.578 1250 254.164 1255.21 251.571C1259.4 249.45 1266.19 243.086 1268.16 239.472C1268.95 237.979 1269.9 236.722 1270.21 236.722C1270.61 236.722 1270.84 239.472 1270.84 242.929C1270.84 246.307 1271.08 250.236 1271.32 251.571L1271.87 254.007H1279.76H1287.66L1287.1 247.957C1286.87 244.658 1286.63 211.817 1286.63 174.89V107.873H1277.55H1268.47V137.335ZM1250.87 166.955C1256.63 169.076 1263.03 175.204 1265.95 181.49C1268 185.89 1268.08 186.597 1268.32 201.367C1268.63 219.123 1267.68 224.309 1263.19 230.201C1259.48 235.072 1257.03 237.115 1251.9 239.629C1248.19 241.515 1246.61 241.829 1241.24 241.829C1234.45 241.751 1229.64 240.179 1224.51 236.251C1217.56 230.987 1212.59 218.809 1211.88 205.688C1210.85 185.575 1219.22 170.333 1233.74 165.934C1237.85 164.676 1246.21 165.148 1250.87 166.955Z" fill="#F0F6FC"/>
<path d="M1481.6 137.332V166.873L1477.26 162.474C1472.05 157.131 1465.5 153.988 1457.13 152.731C1444.34 150.767 1431 155.088 1421.37 164.281C1404.24 180.701 1401.48 216.842 1415.77 237.662C1420.42 244.498 1425.16 248.583 1432.42 252.197C1437.79 254.868 1438.97 255.104 1446.71 255.418C1462.89 256.047 1472.52 251.49 1482.15 238.684L1483.89 236.327V242.691C1483.97 246.226 1484.2 250.233 1484.44 251.569L1484.99 254.083L1492.57 253.847L1500.15 253.611V250.233C1500.07 248.426 1499.99 215.664 1499.91 177.401L1499.75 107.87H1490.68H1481.6V137.332ZM1463.76 166.795C1469.84 169.073 1475.36 174.494 1478.6 181.33L1481.2 186.829V203.721C1481.2 220.378 1481.2 220.692 1479.07 225.092C1476.31 231.063 1470.63 236.955 1465.1 239.626C1461.39 241.433 1459.66 241.826 1454.37 241.826C1448.76 241.826 1447.42 241.512 1442.68 239.234C1431.32 233.655 1424.77 220.299 1424.77 203.014C1424.85 179.994 1436.21 165.381 1454.13 165.224C1457.6 165.224 1460.92 165.773 1463.76 166.795Z" fill="#F0F6FC"/>
<path d="M506.208 163.417C506.523 208.829 506.602 211.5 508.181 218.257C512.838 237.82 524.441 250.391 541.57 254.398C549.069 256.126 564.145 255.969 571.802 254.005C585.221 250.627 595.561 242.377 601.323 230.435C608.033 216.528 608.585 211.107 608.585 158.389V115.727H599.508H590.43V159.882C590.43 184.237 590.036 206.393 589.641 209.222C587.825 221.871 582.616 231.535 574.959 236.563C569.592 240.177 565.882 241.041 556.489 241.041C548.674 241.041 547.806 240.884 542.912 238.449C534.624 234.363 529.414 227.449 525.941 215.743C524.757 211.736 524.52 205.843 524.283 163.417L524.047 115.727H514.969H505.892L506.208 163.417Z" fill="#F0F6FC"/>
<path d="M747.509 126.337V135.372H756.192H764.875V126.337V117.302H756.192H747.509V126.337Z" fill="#F0F6FC"/>
<path d="M1152.44 126.337V135.372H1161.12H1169.81V126.337V117.302H1161.12H1152.44V126.337Z" fill="#F0F6FC"/>
<path d="M679.232 152.735C670.312 153.992 660.445 160.198 654.209 168.369L652.078 171.119L651.999 166.798C651.999 164.441 651.762 160.591 651.526 158.313L650.973 154.227H643.395H635.818L636.054 203.096C636.133 230.044 636.449 252.515 636.607 252.986C636.844 253.693 639.37 254.007 645.606 254.007H654.288L654.525 220.381L654.762 186.833L657.367 181.569C661.945 172.219 670.075 167.269 680.416 167.269C690.835 167.269 697.702 172.376 701.096 182.511C702.754 187.383 702.833 189.19 703.149 220.852L703.386 254.086L712.226 253.85L721.067 253.615V219.831C720.988 187.618 720.909 185.733 719.33 179.526C715.226 164.205 705.596 155.013 691.309 152.656C685.783 151.792 685.862 151.792 679.232 152.735Z" fill="#F0F6FC"/>
<path d="M925.266 152.732C910.584 154.932 898.586 163.732 891.956 177.402C887.377 186.752 886.115 192.723 886.115 205.686C886.115 223.05 889.588 232.871 899.454 242.613C908.926 252.041 919.03 255.655 935.764 255.655C946.657 255.655 955.813 253.848 964.022 250.077L966.154 249.055V240.57V232.085L961.654 234.835C942.316 246.384 919.425 243.713 909.005 228.628C905.611 223.757 903.006 216.136 903.006 211.108V207.651L937.974 207.493L972.863 207.258V197.83C972.784 187.145 971.521 181.252 967.574 173.238C959.918 157.839 943.736 149.982 925.266 152.732ZM943.184 167.974C950.13 171.746 954.708 179.602 955.655 189.345L956.129 194.294H929.528C908.137 194.294 903.006 194.059 903.006 193.273C903.006 191.466 905.453 183.845 907.111 180.545C912.557 169.781 920.53 164.989 932.212 165.46C937.895 165.617 939.632 166.089 943.184 167.974Z" fill="#F0F6FC"/>
<path d="M1034.59 152.654C1026.54 154.068 1017.94 160.354 1014.7 167.346C1013.83 169.153 1012.89 170.725 1012.57 170.725C1012.18 170.725 1011.94 168.682 1011.94 166.089C1011.94 163.575 1011.7 159.882 1011.47 157.84L1010.91 154.226H1003.02H995.127L995.601 159.49C995.917 162.475 996.153 184.867 996.153 209.38V254.006H1004.76H1013.36L1013.68 223.522C1013.99 194.216 1014.07 192.959 1015.81 188.009C1018.73 179.838 1022.67 174.889 1028.91 171.667C1032.15 170.018 1033.96 169.625 1038.94 169.546H1045.09V161.218V152.811L1042.65 152.34C1039.88 151.79 1039.8 151.79 1034.59 152.654Z" fill="#F0F6FC"/>
<path d="M1088.11 152.656C1075.09 154.227 1065.85 159.491 1061.75 167.505C1057.96 174.733 1058.12 185.654 1061.98 192.253C1066.48 199.953 1073.59 204.117 1092.14 210.088C1109.98 215.823 1115.18 220.066 1114.24 227.923C1113.29 234.994 1108.48 239.865 1100.58 241.436C1090.79 243.479 1072.17 238.765 1062.3 231.851L1060.09 230.358V238.922V247.565L1066.09 250.079C1075.72 254.086 1082.98 255.578 1092.37 255.578C1109.82 255.578 1120.79 250.079 1126.55 238.451C1128.68 234.13 1129.24 232.165 1129.47 226.744C1130.1 210.795 1122.29 203.017 1097.5 195.082C1077.38 188.718 1071.61 183.297 1075.4 174.34C1077.69 168.762 1085.19 165.226 1094.58 165.226C1103.27 165.226 1110.21 167.348 1122.68 173.712C1123 173.869 1123.24 170.805 1123.24 166.876V159.727L1119.21 157.763C1111.08 153.598 1097.66 151.399 1088.11 152.656Z" fill="#F0F6FC"/>
<path d="M1341.1 152.736C1334.07 153.6 1327.99 155.25 1322.39 157.921L1318.2 159.807V166.878C1318.2 170.727 1318.36 173.87 1318.52 173.87C1318.76 173.87 1320.57 172.849 1322.7 171.592C1328.94 167.742 1335.89 165.778 1344.49 165.385C1350.57 165.149 1353.01 165.306 1355.86 166.406C1363.04 169.156 1367.06 174.341 1368.64 182.905C1370.06 190.448 1370.22 190.212 1364.22 190.683C1342.67 192.49 1332.18 195.083 1323.81 200.661C1318.2 204.354 1315.05 207.968 1312.05 213.939C1310.15 217.868 1309.92 219.125 1309.92 226.903C1309.92 234.602 1310.15 236.017 1311.97 239.945C1314.65 245.602 1319.55 250.473 1325.23 253.144C1329.33 255.03 1330.44 255.187 1339.91 255.187C1350.09 255.187 1350.17 255.187 1356.25 252.28C1360.2 250.473 1363.91 247.88 1366.43 245.366C1368.64 243.166 1370.62 241.438 1370.7 241.595C1370.85 241.752 1371.25 244.502 1371.64 247.723L1372.27 253.616L1380.48 253.851L1388.69 254.087L1388.14 250.709C1387.82 248.823 1387.27 232.324 1386.96 213.939C1386.32 176.934 1386.09 175.363 1380.56 166.799C1373.3 155.564 1359.25 150.536 1341.1 152.736ZM1369.51 212.996C1369.51 225.096 1368.49 228.788 1363.51 234.288C1353.17 245.759 1335.1 245.602 1329.1 234.131C1326.65 229.496 1326.73 221.953 1329.18 216.846C1333.36 208.282 1345.75 203.333 1363.83 203.018L1369.51 202.94V212.996Z" fill="#F0F6FC"/>
<path d="M747.509 204.116V254.006H756.192H764.875V204.116V154.226H756.192H747.509V204.116Z" fill="#F0F6FC"/>
<path d="M783.82 155.013C783.82 155.406 786.109 161.691 788.871 168.919C791.634 176.226 797.712 192.175 802.448 204.51C807.105 216.845 813.262 232.873 816.183 240.258L821.313 253.614H829.917H838.442L841.126 246.936C842.626 243.243 846.809 232.637 850.519 223.366C854.15 214.095 861.412 195.475 866.701 182.118C871.989 168.683 876.646 156.977 877.041 155.956L877.751 154.227H868.358H858.965L856.597 161.062C855.255 164.912 850.756 177.876 846.572 189.975C842.31 202.074 837.021 217.473 834.732 224.152C832.443 230.83 830.391 235.78 830.233 235.151C828.733 230.201 814.288 188.011 809 172.847L802.369 154.227H793.134C787.451 154.227 783.82 154.541 783.82 155.013Z" fill="#F0F6FC"/>
<path d="M1152.44 204.116V254.006H1161.12H1169.81V204.116V154.226H1161.12H1152.44V204.116Z" fill="#F0F6FC"/>
<path d="M1056.93 369.263V444.53L1072.88 444.373L1088.9 444.216L1089.14 369.106L1089.29 294.075H1073.11H1056.93V369.263Z" fill="#F0F6FC"/>
<path d="M998.519 312.146V325.502H1014.31H1030.09V312.146V298.789H1014.31H998.519V312.146Z" fill="#F0F6FC"/>
<path d="M1350.73 311.912L1350.96 325.111H1366.75H1382.54L1382.77 311.912L1382.93 298.791H1366.75H1350.57L1350.73 311.912Z" fill="#F0F6FC"/>
<path d="M490.182 315.288V328.644H509.916H529.649V386.391V444.059L545.436 444.295L561.223 444.53V386.548V328.644H580.957H600.69V315.288V301.932H545.436H490.182V315.288Z" fill="#F0F6FC"/>
<path d="M629.897 339.33C616.321 342.237 603.375 352.529 596.982 365.571C592.561 374.528 591.22 379.949 590.667 390.791C590.115 402.026 591.535 409.176 595.956 418.054C607.164 440.288 633.055 451.052 663.602 446.102C670.548 445.002 678.915 442.409 681.047 440.76C681.678 440.21 681.994 436.753 681.994 428.346V416.718L677.731 418.682C671.654 421.432 663.839 422.925 654.998 422.925C643 422.925 635.265 420.725 629.503 415.775C626.74 413.34 622.793 406.583 622.793 404.305C622.793 403.519 630.213 403.283 656.182 403.126L689.493 402.89L690.124 396.605C692.492 373.271 681.678 350.644 664.313 342.473C655.156 338.152 641.185 336.894 629.897 339.33ZM650.026 363.921C655.63 366.436 659.34 372.171 660.366 379.792L660.918 383.642H641.737H622.635L623.188 380.656C624.53 373.428 629.503 366.436 635.028 363.921C639.133 362.036 645.921 362.036 650.026 363.921Z" fill="#F0F6FC"/>
<path d="M749.009 339.174C728.17 343.574 712.936 357.559 707.489 377.358C705.595 384.35 705.595 400.928 707.489 407.999C710.015 417.427 713.962 424.262 720.987 431.255C728.17 438.404 734.564 442.097 744.904 445.082C750.351 446.654 752.719 446.889 764.875 446.811C775.767 446.732 779.872 446.418 784.213 445.239L789.739 443.747L789.976 431.333C790.055 424.576 790.055 418.998 789.976 418.998C789.818 418.998 787.766 419.784 785.397 420.648C779.241 423.084 766.137 423.634 759.665 421.827C746.483 418.055 739.221 407.684 739.3 392.678C739.379 377.75 746.562 367.301 759.27 363.687C766.927 361.487 780.977 362.508 788.792 365.965C790.055 366.515 790.134 365.73 789.976 354.102L789.739 341.61L784.213 340.195C776.794 338.231 756.35 337.681 749.009 339.174Z" fill="#F0F6FC"/>
<path d="M864.569 339.251C857.781 341.136 853.992 343.493 848.309 349.229C845.309 352.214 842.783 354.571 842.705 354.414C842.547 354.257 842.152 351.193 841.757 347.5L841.047 340.822H827.234H813.42L813.499 343.336C813.499 344.75 813.578 368.006 813.657 395.033L813.815 444.059L829.996 444.295L846.099 444.53L846.336 410.354L846.572 376.177L848.782 371.62C851.624 365.885 855.571 363.056 861.412 362.585C869.147 361.956 873.962 365.649 876.488 374.134C877.593 377.748 877.751 383.484 877.751 411.218V444.059L893.933 444.295L910.114 444.53V411.454C910.114 375.627 910.272 373.663 914.455 368.242C917.613 364.156 922.112 362.192 927.479 362.585C933.32 362.978 936.557 365.335 939.24 370.992L941.293 375.391L941.53 409.804L941.766 444.137H957.948H974.129L973.892 407.84C973.577 376.413 973.419 370.835 972.235 366.749C967.183 349.229 956.132 339.251 940.74 338.308C927.953 337.522 918.876 341.058 909.482 350.486C906.325 353.707 903.562 356.143 903.484 356.064C903.326 355.907 902.457 354.335 901.589 352.607C899.458 348.286 893.617 343.1 888.17 340.586C882.566 338.072 871.2 337.365 864.569 339.251Z" fill="#F0F6FC"/>
<path d="M1147.71 339.33C1134.84 342.08 1121.34 352.451 1115.19 364.393C1110.05 374.135 1108.63 380.813 1108.63 393.855C1108.71 404.226 1108.87 405.798 1110.84 411.376C1120.24 438.089 1147.63 451.524 1181.41 446.103C1188.75 444.924 1197.04 442.331 1198.78 440.681C1199.41 440.131 1199.72 436.282 1199.8 428.818C1199.88 422.768 1199.88 417.583 1199.8 417.268C1199.8 416.954 1197.91 417.583 1195.54 418.683C1183.94 423.947 1164.52 424.418 1153.55 419.704C1147.31 417.111 1142.5 411.612 1141 405.405L1140.44 403.283H1173.68H1206.91L1207.22 401.476C1208.17 397.077 1208.33 388.984 1207.62 382.856C1205.09 359.836 1192.3 343.808 1172.81 339.251C1166.65 337.837 1154.57 337.837 1147.71 339.33ZM1167.91 363.921C1169.65 364.707 1172.18 366.671 1173.52 368.321C1175.89 371.15 1178.49 378.299 1178.49 381.913V383.642H1159.55C1137.84 383.642 1139.18 384.27 1142.26 376.099C1144.31 370.757 1148.5 365.807 1152.84 363.921C1156.94 362.036 1163.73 362.036 1167.91 363.921Z" fill="#F0F6FC"/>
<path d="M1278.74 339.172C1272.5 340.901 1266.66 344.436 1261.53 349.543C1258.77 352.293 1256.4 354.571 1256.24 354.571C1256.08 354.571 1255.77 352.214 1255.45 349.229C1254.58 339.408 1256.24 340.429 1240.3 340.429H1226.4L1226.88 349.229C1227.19 354.1 1227.43 377.513 1227.43 401.318V444.53L1243.61 444.295L1259.79 444.059V411.139C1259.79 380.105 1259.87 377.984 1261.37 373.977C1265.08 364.078 1275.9 359.599 1285.05 364.156C1287.74 365.571 1289.16 366.985 1290.97 370.285L1293.34 374.606L1293.73 409.568C1293.97 428.817 1294.37 444.452 1294.76 444.295C1295.08 444.216 1302.26 444.137 1310.71 444.137H1326.1V409.647C1326.1 370.835 1325.7 366.749 1320.97 357.164C1316.31 347.736 1309.21 341.765 1299.65 339.329C1294.13 337.836 1283.79 337.836 1278.74 339.172Z" fill="#F0F6FC"/>
<path d="M1443.31 339.25C1423.58 343.571 1410.24 355.592 1404.24 374.605C1401.72 382.383 1401.16 398.332 1403.06 406.896C1407.08 425.359 1419.32 438.951 1437 444.608C1449 448.458 1465.97 447.908 1477.73 443.272C1498.41 435.18 1510.49 413.81 1508.99 387.961C1508.36 378.062 1506.94 372.484 1502.75 364.077C1496.67 351.663 1484.2 342.157 1470.15 339.25C1463.36 337.835 1449.71 337.835 1443.31 339.25ZM1465.1 364.627C1473.55 368.948 1477.26 377.59 1477.26 392.675C1477.26 403.517 1475.99 408.781 1471.97 414.753C1468.34 420.174 1463.13 422.845 1456.42 422.924C1447.1 422.924 1440.95 418.209 1437.39 408.231C1435.66 403.517 1435.42 401.632 1435.5 392.282C1435.5 380.497 1436.68 376.019 1441.42 369.498C1446.47 362.584 1456.97 360.384 1465.1 364.627Z" fill="#F0F6FC"/>
<path d="M998.519 392.44V444.53H1014.31H1030.09V392.44V340.429H1014.31H998.519V392.44Z" fill="#F0F6FC"/>
<path d="M1351.12 340.904C1350.8 341.218 1350.57 364.552 1350.57 392.758V444.062L1366.43 444.298C1376.54 444.455 1382.46 444.219 1382.61 443.748C1382.77 443.276 1382.85 419.942 1382.77 391.894L1382.54 340.825L1367.06 340.59C1358.62 340.511 1351.44 340.668 1351.12 340.904Z" fill="#F0F6FC"/>
<path d="M1527.3 409.884C1515.3 414.126 1511.2 428.425 1519.25 437.775C1523.2 442.41 1526.99 444.139 1533.06 444.139C1544.04 444.06 1551.06 436.989 1551.06 426.068C1550.98 414.519 1538.43 405.877 1527.3 409.884ZM1541.98 414.598C1549.25 420.097 1549.88 430.94 1543.4 437.225C1538.43 442.018 1532.98 443.039 1526.91 440.289C1518.3 436.439 1515.78 424.026 1522.09 416.876C1525.57 412.948 1528.41 411.848 1534.17 412.162C1538.04 412.319 1539.62 412.791 1541.98 414.598Z" fill="#F0F6FC"/>
<path d="M1527.38 426.382C1527.38 433.925 1527.62 435.496 1528.56 435.496C1529.43 435.496 1529.75 434.553 1529.75 431.567C1529.75 428.111 1529.98 427.639 1531.33 427.639C1532.43 427.639 1533.77 428.896 1535.43 431.567C1537.01 434.082 1538.43 435.496 1539.38 435.496C1540.72 435.496 1540.56 435.024 1538.35 431.803C1536.69 429.446 1536.14 428.032 1536.69 427.796C1539.85 426.775 1541.27 421.039 1538.83 418.997C1538.19 418.447 1535.35 417.818 1532.51 417.582L1527.38 417.19V426.382ZM1536.69 420.489C1537.33 420.804 1537.64 421.982 1537.48 423.004C1537.33 424.261 1536.54 424.968 1534.56 425.518C1530.85 426.461 1529.75 425.753 1529.75 422.532C1529.75 419.861 1529.83 419.782 1532.75 419.782C1534.33 419.782 1536.14 420.097 1536.69 420.489Z" fill="#F0F6FC"/>
</svg>
